<svg xmlns="http://www.w3.org/2000/svg" width="760" height="180" viewBox="0 0 760 180" role="img" aria-labelledby="title desc">
  <title id="title">Client Review Bureau</title>
  <desc id="desc">Logo for Client Review Bureau with circular seal and shield check mark.</desc>
  <defs>
    <linearGradient id="sealBg" x1="0" x2="1" y1="0" y2="1">
      <stop offset="0%" stop-color="#1e6fb6"/>
      <stop offset="100%" stop-color="#194f88"/>
    </linearGradient>
    <linearGradient id="shieldBg" x1="0" x2="0" y1="0" y2="1">
      <stop offset="0%" stop-color="#32b36d"/>
      <stop offset="100%" stop-color="#22854f"/>
    </linearGradient>
  </defs>
  <g transform="translate(18 16)">
    <circle cx="74" cy="74" r="70" fill="url(#sealBg)"/>
    <circle cx="74" cy="74" r="55" fill="#ffffff" opacity="0.98"/>
    <path d="M74 29c12 9 24 13 34 15v24c0 27-13 45-34 58C53 113 40 95 40 68V44c10-2 22-6 34-15z" fill="url(#shieldBg)"/>
    <path d="M58 73l12 12 24-26" fill="none" stroke="#ffffff" stroke-width="10" stroke-linecap="round" stroke-linejoin="round"/>
    <text x="74" y="130" text-anchor="middle" font-family="Inter, Segoe UI, Arial, sans-serif" font-size="22" font-weight="800" fill="#194f88" letter-spacing="1.3">CRB</text>
  </g>
  <g transform="translate(178 34)" font-family="Inter, Segoe UI, Arial, sans-serif">
    <text x="0" y="42" font-size="50" font-weight="800" fill="#194f88">Client Review</text>
    <text x="0" y="96" font-size="50" font-weight="800" fill="#194f88">Bureau</text>
    <text x="3" y="132" font-size="18" font-weight="600" fill="#4f657b" letter-spacing="1.8">PRIVATE MEMBER REVIEW FILES</text>
  </g>
</svg>
